<mxfile host="Electron" modified="2023-12-03T16:03:13.419Z" agent="Mozilla/5.0 (X11; Linux x86_64) AppleWebKit/537.36 (KHTML, like Gecko) draw.io/22.1.2 Chrome/114.0.5735.289 Electron/25.9.4 Safari/537.36" etag="bgLbq7JMuAol2H1e2-P4" version="22.1.2" type="device">
  <diagram name="Page-1" id="VaYKF1ExwJRjIGirgEVT">
    <mxGraphModel dx="1554" dy="1788" grid="1" gridSize="10" guides="1" tooltips="1" connect="1" arrows="1" fold="1" page="1" pageScale="1" pageWidth="850" pageHeight="1100" math="1" shadow="0">
      <root>
        <mxCell id="0" />
        <mxCell id="1" parent="0" />
        <mxCell id="1oebwJyUHkOnqoyGgRIs-12" value="element-wise&lt;br&gt;multiplication" style="text;html=1;align=center;verticalAlign=middle;resizable=0;points=[];autosize=1;strokeColor=none;fillColor=none;" parent="1" vertex="1">
          <mxGeometry x="775" y="43" width="90" height="40" as="geometry" />
        </mxCell>
        <mxCell id="1oebwJyUHkOnqoyGgRIs-14" value="@" style="ellipse;whiteSpace=wrap;html=1;aspect=fixed;direction=south;fontSize=17;" parent="1" vertex="1">
          <mxGeometry x="805" y="90" width="30" height="30" as="geometry" />
        </mxCell>
        <mxCell id="1oebwJyUHkOnqoyGgRIs-15" value="matrix multiply" style="text;html=1;align=center;verticalAlign=middle;resizable=0;points=[];autosize=1;strokeColor=none;fillColor=none;" parent="1" vertex="1">
          <mxGeometry x="770" y="110" width="100" height="30" as="geometry" />
        </mxCell>
        <mxCell id="1oebwJyUHkOnqoyGgRIs-69" value="$$\sim$$" style="ellipse;whiteSpace=wrap;html=1;aspect=fixed;fontSize=22;" parent="1" vertex="1">
          <mxGeometry x="805" y="150" width="30" height="30" as="geometry" />
        </mxCell>
        <mxCell id="1oebwJyUHkOnqoyGgRIs-70" value="RoPE" style="text;html=1;align=center;verticalAlign=middle;resizable=0;points=[];autosize=1;strokeColor=none;fillColor=none;" parent="1" vertex="1">
          <mxGeometry x="795" y="175" width="50" height="30" as="geometry" />
        </mxCell>
        <mxCell id="0JP9FPOi-MLHy-7nl1S9-8" value="$$\times$$" style="ellipse;whiteSpace=wrap;html=1;aspect=fixed;direction=south;fontSize=23;align=center;verticalAlign=middle;fontStyle=0" vertex="1" parent="1">
          <mxGeometry x="805" y="13" width="30" height="30" as="geometry" />
        </mxCell>
        <mxCell id="0JP9FPOi-MLHy-7nl1S9-15" value="RMS" style="ellipse;whiteSpace=wrap;html=1;aspect=fixed;direction=south;fontSize=12;align=center;verticalAlign=middle;fontStyle=0" vertex="1" parent="1">
          <mxGeometry x="805" y="-50" width="30" height="30" as="geometry" />
        </mxCell>
        <mxCell id="0JP9FPOi-MLHy-7nl1S9-16" value="RMS normalization" style="text;html=1;align=center;verticalAlign=middle;resizable=0;points=[];autosize=1;strokeColor=none;fillColor=none;" vertex="1" parent="1">
          <mxGeometry x="760" y="-20" width="120" height="30" as="geometry" />
        </mxCell>
        <mxCell id="0JP9FPOi-MLHy-7nl1S9-69" value="Attention layer" style="swimlane;" vertex="1" parent="1">
          <mxGeometry x="-255" y="130" width="680" height="1135" as="geometry">
            <mxRectangle x="-270" y="155" width="120" height="30" as="alternateBounds" />
          </mxGeometry>
        </mxCell>
        <mxCell id="0JP9FPOi-MLHy-7nl1S9-5" style="edgeStyle=orthogonalEdgeStyle;rounded=0;orthogonalLoop=1;jettySize=auto;html=1;jumpStyle=gap;entryX=0.5;entryY=0;entryDx=0;entryDy=0;" edge="1" parent="0JP9FPOi-MLHy-7nl1S9-69" source="1oebwJyUHkOnqoyGgRIs-1" target="0JP9FPOi-MLHy-7nl1S9-10">
          <mxGeometry relative="1" as="geometry">
            <mxPoint x="390" y="1025" as="targetPoint" />
            <Array as="points">
              <mxPoint x="370" y="1020" />
            </Array>
          </mxGeometry>
        </mxCell>
        <mxCell id="1oebwJyUHkOnqoyGgRIs-64" value="flash attention" style="text;html=1;align=center;verticalAlign=middle;resizable=0;points=[];autosize=1;strokeColor=none;fillColor=default;" parent="0JP9FPOi-MLHy-7nl1S9-69" vertex="1">
          <mxGeometry x="210" y="765" width="100" height="30" as="geometry" />
        </mxCell>
        <mxCell id="1oebwJyUHkOnqoyGgRIs-1" value="input embedding&lt;br&gt;&lt;font face=&quot;Courier New&quot;&gt;&lt;b&gt;[embd, ctx*batch]&lt;/b&gt;&lt;/font&gt;" style="rounded=1;whiteSpace=wrap;html=1;" parent="0JP9FPOi-MLHy-7nl1S9-69" vertex="1">
          <mxGeometry x="250" y="55" width="150" height="50" as="geometry" />
        </mxCell>
        <mxCell id="1oebwJyUHkOnqoyGgRIs-17" style="edgeStyle=orthogonalEdgeStyle;rounded=0;orthogonalLoop=1;jettySize=auto;html=1;jumpStyle=gap;" parent="0JP9FPOi-MLHy-7nl1S9-69" target="1oebwJyUHkOnqoyGgRIs-16" edge="1">
          <mxGeometry relative="1" as="geometry">
            <mxPoint x="240" y="295" as="sourcePoint" />
            <Array as="points">
              <mxPoint x="240" y="335" />
              <mxPoint x="240" y="335" />
            </Array>
          </mxGeometry>
        </mxCell>
        <mxCell id="1oebwJyUHkOnqoyGgRIs-34" style="edgeStyle=orthogonalEdgeStyle;rounded=0;orthogonalLoop=1;jettySize=auto;html=1;jumpStyle=gap;" parent="0JP9FPOi-MLHy-7nl1S9-69" target="1oebwJyUHkOnqoyGgRIs-30" edge="1">
          <mxGeometry relative="1" as="geometry">
            <mxPoint x="290.02857142857147" y="295" as="sourcePoint" />
            <Array as="points">
              <mxPoint x="290" y="315" />
              <mxPoint x="290" y="315" />
            </Array>
          </mxGeometry>
        </mxCell>
        <mxCell id="1oebwJyUHkOnqoyGgRIs-2" value="weighted embedding&lt;br&gt;&lt;b style=&quot;font-family: &amp;quot;Courier New&amp;quot;;&quot;&gt;[embd, ctx*batch]&lt;/b&gt;" style="rounded=1;whiteSpace=wrap;html=1;" parent="0JP9FPOi-MLHy-7nl1S9-69" vertex="1">
          <mxGeometry x="220" y="255" width="140" height="40" as="geometry" />
        </mxCell>
        <mxCell id="1oebwJyUHkOnqoyGgRIs-6" value="attention norm factor&lt;br&gt;&lt;i&gt;blk.x.attn_norm&lt;/i&gt;&lt;br&gt;&lt;b&gt;&lt;font face=&quot;Courier New&quot;&gt;[embd]&lt;/font&gt;&lt;/b&gt;" style="rounded=0;whiteSpace=wrap;html=1;" parent="0JP9FPOi-MLHy-7nl1S9-69" vertex="1">
          <mxGeometry x="40" y="145" width="120" height="60" as="geometry" />
        </mxCell>
        <mxCell id="1oebwJyUHkOnqoyGgRIs-13" value="attention query matrix&lt;br&gt;&lt;i&gt;blk.%.attn_q&lt;/i&gt;&lt;br&gt;&lt;b&gt;&lt;font face=&quot;Courier New&quot;&gt;[embd, embd]&lt;/font&gt;&lt;/b&gt;" style="rounded=0;whiteSpace=wrap;html=1;" parent="0JP9FPOi-MLHy-7nl1S9-69" vertex="1">
          <mxGeometry x="40" y="505" width="120" height="60" as="geometry" />
        </mxCell>
        <mxCell id="1oebwJyUHkOnqoyGgRIs-16" value="@" style="ellipse;whiteSpace=wrap;html=1;aspect=fixed;direction=south;fontSize=17;" parent="0JP9FPOi-MLHy-7nl1S9-69" vertex="1">
          <mxGeometry x="225" y="520" width="30" height="30" as="geometry" />
        </mxCell>
        <mxCell id="1oebwJyUHkOnqoyGgRIs-18" style="edgeStyle=orthogonalEdgeStyle;rounded=0;orthogonalLoop=1;jettySize=auto;html=1;jumpStyle=gap;" parent="0JP9FPOi-MLHy-7nl1S9-69" source="1oebwJyUHkOnqoyGgRIs-13" target="1oebwJyUHkOnqoyGgRIs-16" edge="1">
          <mxGeometry relative="1" as="geometry">
            <Array as="points">
              <mxPoint x="180" y="535" />
              <mxPoint x="180" y="535" />
            </Array>
          </mxGeometry>
        </mxCell>
        <mxCell id="1oebwJyUHkOnqoyGgRIs-30" value="@" style="ellipse;whiteSpace=wrap;html=1;aspect=fixed;direction=south;fontSize=17;" parent="0JP9FPOi-MLHy-7nl1S9-69" vertex="1">
          <mxGeometry x="275" y="440" width="30" height="30" as="geometry" />
        </mxCell>
        <mxCell id="1oebwJyUHkOnqoyGgRIs-32" style="edgeStyle=orthogonalEdgeStyle;rounded=0;orthogonalLoop=1;jettySize=auto;html=1;jumpStyle=gap;" parent="0JP9FPOi-MLHy-7nl1S9-69" source="1oebwJyUHkOnqoyGgRIs-31" target="1oebwJyUHkOnqoyGgRIs-30" edge="1">
          <mxGeometry relative="1" as="geometry" />
        </mxCell>
        <mxCell id="1oebwJyUHkOnqoyGgRIs-31" value="attention key matrix&lt;br&gt;&lt;i&gt;blk.%.attn_k&lt;/i&gt;&lt;br&gt;&lt;b&gt;&lt;font face=&quot;Courier New&quot;&gt;[embd, embd]&lt;/font&gt;&lt;/b&gt;" style="rounded=0;whiteSpace=wrap;html=1;" parent="0JP9FPOi-MLHy-7nl1S9-69" vertex="1">
          <mxGeometry x="40" y="425" width="120" height="60" as="geometry" />
        </mxCell>
        <mxCell id="1oebwJyUHkOnqoyGgRIs-41" style="edgeStyle=orthogonalEdgeStyle;rounded=0;orthogonalLoop=1;jettySize=auto;html=1;" parent="0JP9FPOi-MLHy-7nl1S9-69" source="1oebwJyUHkOnqoyGgRIs-37" target="1oebwJyUHkOnqoyGgRIs-40" edge="1">
          <mxGeometry relative="1" as="geometry">
            <Array as="points">
              <mxPoint x="315" y="640" />
            </Array>
          </mxGeometry>
        </mxCell>
        <mxCell id="1oebwJyUHkOnqoyGgRIs-50" value="permute" style="edgeLabel;html=1;align=center;verticalAlign=middle;resizable=0;points=[];" parent="1oebwJyUHkOnqoyGgRIs-41" vertex="1" connectable="0">
          <mxGeometry x="0.4307" y="-1" relative="1" as="geometry">
            <mxPoint x="1" y="-11" as="offset" />
          </mxGeometry>
        </mxCell>
        <mxCell id="1oebwJyUHkOnqoyGgRIs-42" value="attention value matrix&lt;br&gt;&lt;i&gt;blk.%.attn_v&lt;/i&gt;&lt;br&gt;&lt;b&gt;&lt;font face=&quot;Courier New&quot;&gt;[embd, embd]&lt;/font&gt;&lt;/b&gt;" style="rounded=0;whiteSpace=wrap;html=1;" parent="0JP9FPOi-MLHy-7nl1S9-69" vertex="1">
          <mxGeometry x="40" y="345" width="120" height="60" as="geometry" />
        </mxCell>
        <mxCell id="1oebwJyUHkOnqoyGgRIs-43" value="@" style="ellipse;whiteSpace=wrap;html=1;aspect=fixed;direction=south;fontSize=17;" parent="0JP9FPOi-MLHy-7nl1S9-69" vertex="1">
          <mxGeometry x="320" y="360" width="30" height="30" as="geometry" />
        </mxCell>
        <mxCell id="1oebwJyUHkOnqoyGgRIs-45" style="edgeStyle=elbowEdgeStyle;rounded=0;orthogonalLoop=1;jettySize=auto;html=1;" parent="0JP9FPOi-MLHy-7nl1S9-69" source="1oebwJyUHkOnqoyGgRIs-2" target="1oebwJyUHkOnqoyGgRIs-43" edge="1">
          <mxGeometry relative="1" as="geometry" />
        </mxCell>
        <mxCell id="1oebwJyUHkOnqoyGgRIs-44" style="edgeStyle=orthogonalEdgeStyle;rounded=0;orthogonalLoop=1;jettySize=auto;html=1;jumpStyle=gap;" parent="0JP9FPOi-MLHy-7nl1S9-69" source="1oebwJyUHkOnqoyGgRIs-42" target="1oebwJyUHkOnqoyGgRIs-43" edge="1">
          <mxGeometry relative="1" as="geometry" />
        </mxCell>
        <mxCell id="1oebwJyUHkOnqoyGgRIs-46" value="queries&lt;br&gt;&lt;b style=&quot;font-family: &amp;quot;Courier New&amp;quot;;&quot;&gt;[-1, ctx, head, batch]&lt;/b&gt;" style="rounded=1;whiteSpace=wrap;html=1;" parent="0JP9FPOi-MLHy-7nl1S9-69" vertex="1">
          <mxGeometry x="50" y="695" width="170" height="40" as="geometry" />
        </mxCell>
        <mxCell id="1oebwJyUHkOnqoyGgRIs-47" style="edgeStyle=orthogonalEdgeStyle;rounded=0;orthogonalLoop=1;jettySize=auto;html=1;entryX=0.5;entryY=0;entryDx=0;entryDy=0;" parent="0JP9FPOi-MLHy-7nl1S9-69" source="1oebwJyUHkOnqoyGgRIs-22" target="1oebwJyUHkOnqoyGgRIs-46" edge="1">
          <mxGeometry relative="1" as="geometry">
            <Array as="points">
              <mxPoint x="135" y="640" />
            </Array>
          </mxGeometry>
        </mxCell>
        <mxCell id="1oebwJyUHkOnqoyGgRIs-51" value="permute" style="edgeLabel;html=1;align=center;verticalAlign=middle;resizable=0;points=[];" parent="1oebwJyUHkOnqoyGgRIs-47" vertex="1" connectable="0">
          <mxGeometry x="0.4097" y="-1" relative="1" as="geometry">
            <mxPoint x="1" y="14" as="offset" />
          </mxGeometry>
        </mxCell>
        <mxCell id="1oebwJyUHkOnqoyGgRIs-29" value="reshape&lt;br&gt;&lt;div style=&quot;&quot;&gt;&lt;b style=&quot;font-family: &amp;quot;Courier New&amp;quot;; background-color: initial;&quot;&gt;[-1, head, ctx, batch]&lt;/b&gt;&lt;/div&gt;" style="text;html=1;strokeColor=none;fillColor=none;align=right;verticalAlign=middle;whiteSpace=wrap;rounded=0;" parent="0JP9FPOi-MLHy-7nl1S9-69" vertex="1">
          <mxGeometry x="40" y="565" width="200" height="30" as="geometry" />
        </mxCell>
        <mxCell id="1oebwJyUHkOnqoyGgRIs-24" style="edgeStyle=orthogonalEdgeStyle;rounded=0;orthogonalLoop=1;jettySize=auto;html=1;jumpStyle=gap;" parent="0JP9FPOi-MLHy-7nl1S9-69" source="1oebwJyUHkOnqoyGgRIs-16" target="1oebwJyUHkOnqoyGgRIs-22" edge="1">
          <mxGeometry relative="1" as="geometry" />
        </mxCell>
        <mxCell id="1oebwJyUHkOnqoyGgRIs-49" value="values&lt;br&gt;&lt;b style=&quot;font-family: &amp;quot;Courier New&amp;quot;;&quot;&gt;[ctx, -1, head, batch]&lt;/b&gt;" style="rounded=1;whiteSpace=wrap;html=1;" parent="0JP9FPOi-MLHy-7nl1S9-69" vertex="1">
          <mxGeometry x="410" y="695" width="180" height="40" as="geometry" />
        </mxCell>
        <mxCell id="1oebwJyUHkOnqoyGgRIs-48" style="edgeStyle=orthogonalEdgeStyle;rounded=0;orthogonalLoop=1;jettySize=auto;html=1;jumpStyle=gap;" parent="0JP9FPOi-MLHy-7nl1S9-69" source="1oebwJyUHkOnqoyGgRIs-43" target="1oebwJyUHkOnqoyGgRIs-49" edge="1">
          <mxGeometry relative="1" as="geometry">
            <mxPoint x="450" y="635" as="targetPoint" />
          </mxGeometry>
        </mxCell>
        <mxCell id="1oebwJyUHkOnqoyGgRIs-55" value="permute" style="edgeLabel;html=1;align=center;verticalAlign=middle;resizable=0;points=[];" parent="1oebwJyUHkOnqoyGgRIs-48" vertex="1" connectable="0">
          <mxGeometry x="0.3323" y="2" relative="1" as="geometry">
            <mxPoint y="127" as="offset" />
          </mxGeometry>
        </mxCell>
        <mxCell id="1oebwJyUHkOnqoyGgRIs-56" value="&lt;div&gt;reshape&lt;/div&gt;&lt;div&gt;&lt;b&gt;&lt;font face=&quot;Courier New&quot;&gt;[ctx, batch, -1, head]&lt;/font&gt;&lt;/b&gt;&lt;/div&gt;" style="edgeLabel;html=1;align=left;verticalAlign=middle;resizable=0;points=[];" parent="1oebwJyUHkOnqoyGgRIs-48" vertex="1" connectable="0">
          <mxGeometry x="-0.1608" relative="1" as="geometry">
            <mxPoint y="153" as="offset" />
          </mxGeometry>
        </mxCell>
        <mxCell id="1oebwJyUHkOnqoyGgRIs-53" value="t13" style="text;html=1;align=center;verticalAlign=middle;resizable=0;points=[];autosize=1;strokeColor=none;fillColor=none;" parent="0JP9FPOi-MLHy-7nl1S9-69" vertex="1">
          <mxGeometry x="170" y="673" width="40" height="30" as="geometry" />
        </mxCell>
        <mxCell id="1oebwJyUHkOnqoyGgRIs-57" value="t14" style="text;html=1;align=center;verticalAlign=middle;resizable=0;points=[];autosize=1;strokeColor=none;fillColor=none;" parent="0JP9FPOi-MLHy-7nl1S9-69" vertex="1">
          <mxGeometry x="320" y="673" width="40" height="30" as="geometry" />
        </mxCell>
        <mxCell id="1oebwJyUHkOnqoyGgRIs-58" value="t15" style="text;html=1;align=center;verticalAlign=middle;resizable=0;points=[];autosize=1;strokeColor=none;fillColor=none;" parent="0JP9FPOi-MLHy-7nl1S9-69" vertex="1">
          <mxGeometry x="530" y="673" width="40" height="30" as="geometry" />
        </mxCell>
        <mxCell id="1oebwJyUHkOnqoyGgRIs-59" value="⚡︎" style="ellipse;whiteSpace=wrap;html=1;aspect=fixed;fontSize=20;" parent="0JP9FPOi-MLHy-7nl1S9-69" vertex="1">
          <mxGeometry x="300" y="785" width="30" height="30" as="geometry" />
        </mxCell>
        <mxCell id="1oebwJyUHkOnqoyGgRIs-60" style="edgeStyle=orthogonalEdgeStyle;rounded=0;orthogonalLoop=1;jettySize=auto;html=1;" parent="0JP9FPOi-MLHy-7nl1S9-69" source="1oebwJyUHkOnqoyGgRIs-40" target="1oebwJyUHkOnqoyGgRIs-59" edge="1">
          <mxGeometry relative="1" as="geometry">
            <Array as="points">
              <mxPoint x="315" y="765" />
              <mxPoint x="315" y="765" />
            </Array>
          </mxGeometry>
        </mxCell>
        <mxCell id="1oebwJyUHkOnqoyGgRIs-61" style="edgeStyle=orthogonalEdgeStyle;rounded=0;orthogonalLoop=1;jettySize=auto;html=1;exitX=0.5;exitY=1;exitDx=0;exitDy=0;" parent="0JP9FPOi-MLHy-7nl1S9-69" source="1oebwJyUHkOnqoyGgRIs-46" target="1oebwJyUHkOnqoyGgRIs-59" edge="1">
          <mxGeometry relative="1" as="geometry">
            <mxPoint x="265" y="785" as="targetPoint" />
            <Array as="points">
              <mxPoint x="135" y="800" />
            </Array>
          </mxGeometry>
        </mxCell>
        <mxCell id="1oebwJyUHkOnqoyGgRIs-62" style="edgeStyle=orthogonalEdgeStyle;rounded=0;orthogonalLoop=1;jettySize=auto;html=1;jumpStyle=gap;" parent="0JP9FPOi-MLHy-7nl1S9-69" source="1oebwJyUHkOnqoyGgRIs-49" target="1oebwJyUHkOnqoyGgRIs-59" edge="1">
          <mxGeometry relative="1" as="geometry">
            <Array as="points">
              <mxPoint x="500" y="800" />
            </Array>
          </mxGeometry>
        </mxCell>
        <mxCell id="1oebwJyUHkOnqoyGgRIs-22" value="$$\sim$$" style="ellipse;whiteSpace=wrap;html=1;aspect=fixed;fontSize=22;" parent="0JP9FPOi-MLHy-7nl1S9-69" vertex="1">
          <mxGeometry x="225" y="625" width="30" height="30" as="geometry" />
        </mxCell>
        <mxCell id="1oebwJyUHkOnqoyGgRIs-37" value="$$\sim$$" style="ellipse;whiteSpace=wrap;html=1;aspect=fixed;fontSize=22;" parent="0JP9FPOi-MLHy-7nl1S9-69" vertex="1">
          <mxGeometry x="275" y="625" width="30" height="30" as="geometry" />
        </mxCell>
        <mxCell id="0JP9FPOi-MLHy-7nl1S9-1" value="TODO: check masking" style="text;html=1;align=center;verticalAlign=middle;resizable=0;points=[];autosize=1;strokeColor=none;fillColor=none;" vertex="1" parent="0JP9FPOi-MLHy-7nl1S9-69">
          <mxGeometry x="165" y="805" width="140" height="30" as="geometry" />
        </mxCell>
        <mxCell id="0JP9FPOi-MLHy-7nl1S9-2" value="@" style="ellipse;whiteSpace=wrap;html=1;aspect=fixed;direction=south;fontSize=17;" vertex="1" parent="0JP9FPOi-MLHy-7nl1S9-69">
          <mxGeometry x="300" y="932" width="30" height="30" as="geometry" />
        </mxCell>
        <mxCell id="1oebwJyUHkOnqoyGgRIs-63" style="edgeStyle=orthogonalEdgeStyle;rounded=0;orthogonalLoop=1;jettySize=auto;html=1;" parent="0JP9FPOi-MLHy-7nl1S9-69" source="1oebwJyUHkOnqoyGgRIs-59" edge="1" target="0JP9FPOi-MLHy-7nl1S9-2">
          <mxGeometry relative="1" as="geometry">
            <mxPoint x="315" y="955" as="targetPoint" />
          </mxGeometry>
        </mxCell>
        <mxCell id="1oebwJyUHkOnqoyGgRIs-73" value="reshape&lt;br&gt;&lt;b&gt;&lt;font face=&quot;Courier New&quot;&gt;[embd, ctx*batch]&lt;/font&gt;&lt;/b&gt;" style="edgeLabel;html=1;align=right;verticalAlign=middle;resizable=0;points=[];labelBackgroundColor=none;" parent="1oebwJyUHkOnqoyGgRIs-63" vertex="1" connectable="0">
          <mxGeometry x="0.3897" y="1" relative="1" as="geometry">
            <mxPoint y="-1" as="offset" />
          </mxGeometry>
        </mxCell>
        <mxCell id="1oebwJyUHkOnqoyGgRIs-72" value="permute&lt;br&gt;&amp;nbsp;&lt;b&gt;&lt;font face=&quot;Courier New&quot;&gt;[0, 2, 1, 3]&lt;/font&gt;&lt;/b&gt;" style="edgeLabel;html=1;align=right;verticalAlign=middle;resizable=0;points=[];labelBackgroundColor=none;" parent="1oebwJyUHkOnqoyGgRIs-63" vertex="1" connectable="0">
          <mxGeometry x="0.067" y="1" relative="1" as="geometry">
            <mxPoint x="-1" y="-12" as="offset" />
          </mxGeometry>
        </mxCell>
        <mxCell id="0JP9FPOi-MLHy-7nl1S9-4" style="edgeStyle=orthogonalEdgeStyle;rounded=0;orthogonalLoop=1;jettySize=auto;html=1;" edge="1" parent="0JP9FPOi-MLHy-7nl1S9-69" source="0JP9FPOi-MLHy-7nl1S9-3" target="0JP9FPOi-MLHy-7nl1S9-2">
          <mxGeometry relative="1" as="geometry" />
        </mxCell>
        <mxCell id="0JP9FPOi-MLHy-7nl1S9-3" value="attention out&lt;br&gt;&lt;i&gt;blk.%.&lt;/i&gt;attn_output&lt;i&gt;&lt;br&gt;&lt;/i&gt;&lt;b&gt;&lt;font face=&quot;Courier New&quot;&gt;[embd, embd]&lt;/font&gt;&lt;/b&gt;" style="rounded=0;whiteSpace=wrap;html=1;" vertex="1" parent="0JP9FPOi-MLHy-7nl1S9-69">
          <mxGeometry x="40" y="917" width="120" height="60" as="geometry" />
        </mxCell>
        <mxCell id="1oebwJyUHkOnqoyGgRIs-39" style="edgeStyle=orthogonalEdgeStyle;rounded=0;orthogonalLoop=1;jettySize=auto;html=1;" parent="0JP9FPOi-MLHy-7nl1S9-69" source="1oebwJyUHkOnqoyGgRIs-30" target="1oebwJyUHkOnqoyGgRIs-37" edge="1">
          <mxGeometry relative="1" as="geometry" />
        </mxCell>
        <mxCell id="0JP9FPOi-MLHy-7nl1S9-9" value="$$\times$$" style="ellipse;whiteSpace=wrap;html=1;aspect=fixed;direction=south;fontSize=23;align=center;verticalAlign=middle;fontStyle=0" vertex="1" parent="0JP9FPOi-MLHy-7nl1S9-69">
          <mxGeometry x="275" y="185" width="30" height="30" as="geometry" />
        </mxCell>
        <mxCell id="1oebwJyUHkOnqoyGgRIs-3" style="edgeStyle=orthogonalEdgeStyle;rounded=0;orthogonalLoop=1;jettySize=auto;html=1;" parent="0JP9FPOi-MLHy-7nl1S9-69" source="0JP9FPOi-MLHy-7nl1S9-9" target="1oebwJyUHkOnqoyGgRIs-2" edge="1">
          <mxGeometry relative="1" as="geometry">
            <mxPoint x="290" y="215" as="sourcePoint" />
          </mxGeometry>
        </mxCell>
        <mxCell id="1oebwJyUHkOnqoyGgRIs-10" style="edgeStyle=orthogonalEdgeStyle;rounded=0;orthogonalLoop=1;jettySize=auto;html=1;" parent="0JP9FPOi-MLHy-7nl1S9-69" source="1oebwJyUHkOnqoyGgRIs-6" target="0JP9FPOi-MLHy-7nl1S9-9" edge="1">
          <mxGeometry relative="1" as="geometry">
            <mxPoint x="275.0000396354071" y="200.0344827586207" as="targetPoint" />
            <Array as="points">
              <mxPoint x="240" y="175" />
              <mxPoint x="240" y="200" />
            </Array>
          </mxGeometry>
        </mxCell>
        <mxCell id="1oebwJyUHkOnqoyGgRIs-27" value="repeat over&lt;br&gt;&amp;nbsp;&amp;nbsp;&lt;b&gt;&lt;font face=&quot;Courier New&quot;&gt;ctx*batch&lt;/font&gt;&lt;/b&gt;" style="edgeLabel;html=1;align=center;verticalAlign=middle;resizable=0;points=[];" parent="1oebwJyUHkOnqoyGgRIs-10" vertex="1" connectable="0">
          <mxGeometry x="-0.3554" y="-1" relative="1" as="geometry">
            <mxPoint x="-8" y="15" as="offset" />
          </mxGeometry>
        </mxCell>
        <mxCell id="0JP9FPOi-MLHy-7nl1S9-68" style="edgeStyle=orthogonalEdgeStyle;rounded=0;orthogonalLoop=1;jettySize=auto;html=1;" edge="1" parent="0JP9FPOi-MLHy-7nl1S9-69" source="0JP9FPOi-MLHy-7nl1S9-10" target="0JP9FPOi-MLHy-7nl1S9-70">
          <mxGeometry relative="1" as="geometry">
            <mxPoint x="315" y="1065" as="targetPoint" />
          </mxGeometry>
        </mxCell>
        <mxCell id="0JP9FPOi-MLHy-7nl1S9-10" value="$$+$$" style="ellipse;whiteSpace=wrap;html=1;aspect=fixed;direction=south;fontSize=23;align=center;verticalAlign=middle;fontStyle=0" vertex="1" parent="0JP9FPOi-MLHy-7nl1S9-69">
          <mxGeometry x="300" y="1005" width="30" height="30" as="geometry" />
        </mxCell>
        <mxCell id="0JP9FPOi-MLHy-7nl1S9-14" value="" style="edgeStyle=elbowEdgeStyle;rounded=0;orthogonalLoop=1;jettySize=auto;html=1;" edge="1" parent="0JP9FPOi-MLHy-7nl1S9-69" source="1oebwJyUHkOnqoyGgRIs-1" target="0JP9FPOi-MLHy-7nl1S9-13">
          <mxGeometry relative="1" as="geometry">
            <mxPoint x="290" y="105" as="sourcePoint" />
            <mxPoint x="290" y="185" as="targetPoint" />
          </mxGeometry>
        </mxCell>
        <mxCell id="0JP9FPOi-MLHy-7nl1S9-13" value="RMS" style="ellipse;whiteSpace=wrap;html=1;aspect=fixed;direction=south;fontSize=12;align=center;verticalAlign=middle;fontStyle=0" vertex="1" parent="0JP9FPOi-MLHy-7nl1S9-69">
          <mxGeometry x="275" y="128" width="30" height="30" as="geometry" />
        </mxCell>
        <mxCell id="0JP9FPOi-MLHy-7nl1S9-40" value="$$\top$$" style="text;html=1;align=center;verticalAlign=middle;resizable=0;points=[];autosize=1;strokeColor=none;fillColor=none;" vertex="1" parent="0JP9FPOi-MLHy-7nl1S9-69">
          <mxGeometry x="310" y="343" width="70" height="30" as="geometry" />
        </mxCell>
        <mxCell id="0JP9FPOi-MLHy-7nl1S9-41" value="$$\top$$" style="text;html=1;align=center;verticalAlign=middle;resizable=0;points=[];autosize=1;strokeColor=none;fillColor=none;" vertex="1" parent="0JP9FPOi-MLHy-7nl1S9-69">
          <mxGeometry x="215" y="503" width="70" height="30" as="geometry" />
        </mxCell>
        <mxCell id="0JP9FPOi-MLHy-7nl1S9-42" value="$$\top$$" style="text;html=1;align=center;verticalAlign=middle;resizable=0;points=[];autosize=1;strokeColor=none;fillColor=none;" vertex="1" parent="0JP9FPOi-MLHy-7nl1S9-69">
          <mxGeometry x="265" y="424" width="70" height="30" as="geometry" />
        </mxCell>
        <mxCell id="0JP9FPOi-MLHy-7nl1S9-43" value="$$\top$$" style="text;html=1;align=center;verticalAlign=middle;resizable=0;points=[];autosize=1;strokeColor=none;fillColor=none;" vertex="1" parent="0JP9FPOi-MLHy-7nl1S9-69">
          <mxGeometry x="290" y="915" width="70" height="30" as="geometry" />
        </mxCell>
        <mxCell id="0JP9FPOi-MLHy-7nl1S9-64" value="" style="edgeStyle=orthogonalEdgeStyle;rounded=0;orthogonalLoop=1;jettySize=auto;html=1;" edge="1" parent="0JP9FPOi-MLHy-7nl1S9-69" source="0JP9FPOi-MLHy-7nl1S9-2" target="0JP9FPOi-MLHy-7nl1S9-10">
          <mxGeometry relative="1" as="geometry">
            <mxPoint x="315" y="962" as="sourcePoint" />
            <mxPoint x="315.0000000000002" y="985" as="targetPoint" />
          </mxGeometry>
        </mxCell>
        <mxCell id="1oebwJyUHkOnqoyGgRIs-8" value="" style="edgeStyle=elbowEdgeStyle;rounded=0;orthogonalLoop=1;jettySize=auto;html=1;" parent="0JP9FPOi-MLHy-7nl1S9-69" source="0JP9FPOi-MLHy-7nl1S9-13" target="0JP9FPOi-MLHy-7nl1S9-9" edge="1">
          <mxGeometry relative="1" as="geometry">
            <mxPoint x="290" y="125" as="sourcePoint" />
            <mxPoint x="290" y="185" as="targetPoint" />
          </mxGeometry>
        </mxCell>
        <mxCell id="1oebwJyUHkOnqoyGgRIs-40" value="keys&lt;br&gt;&lt;b style=&quot;font-family: &amp;quot;Courier New&amp;quot;;&quot;&gt;[&lt;/b&gt;&lt;b style=&quot;font-family: &amp;quot;Courier New&amp;quot;;&quot;&gt;-1, ctx, head, batch]&lt;/b&gt;" style="rounded=1;whiteSpace=wrap;html=1;" parent="0JP9FPOi-MLHy-7nl1S9-69" vertex="1">
          <mxGeometry x="230" y="695" width="170" height="40" as="geometry" />
        </mxCell>
        <mxCell id="0JP9FPOi-MLHy-7nl1S9-70" value="output embedding&lt;br&gt;&lt;font face=&quot;Courier New&quot;&gt;&lt;b&gt;[embd, ctx*batch]&lt;/b&gt;&lt;/font&gt;" style="rounded=1;whiteSpace=wrap;html=1;" vertex="1" parent="0JP9FPOi-MLHy-7nl1S9-69">
          <mxGeometry x="240" y="1060" width="150" height="50" as="geometry" />
        </mxCell>
        <mxCell id="1oebwJyUHkOnqoyGgRIs-35" value="reshape&lt;br&gt;&lt;div style=&quot;&quot;&gt;&lt;b style=&quot;font-family: &amp;quot;Courier New&amp;quot;; background-color: initial;&quot;&gt;[-1, head, ctx, batch]&lt;/b&gt;&lt;/div&gt;" style="text;html=1;strokeColor=none;fillColor=default;align=left;verticalAlign=middle;whiteSpace=wrap;rounded=0;" parent="0JP9FPOi-MLHy-7nl1S9-69" vertex="1">
          <mxGeometry x="292" y="566" width="180" height="30" as="geometry" />
        </mxCell>
        <mxCell id="0JP9FPOi-MLHy-7nl1S9-71" value="Feed Forward layer" style="swimlane;" vertex="1" parent="1">
          <mxGeometry x="550" y="235" width="470" height="805" as="geometry" />
        </mxCell>
        <mxCell id="0JP9FPOi-MLHy-7nl1S9-18" value="RMS" style="ellipse;whiteSpace=wrap;html=1;aspect=fixed;direction=south;fontSize=12;align=center;verticalAlign=middle;fontStyle=0" vertex="1" parent="0JP9FPOi-MLHy-7nl1S9-71">
          <mxGeometry x="300" y="145" width="30" height="30" as="geometry" />
        </mxCell>
        <mxCell id="0JP9FPOi-MLHy-7nl1S9-21" value="ffn norm factor&lt;br&gt;&lt;i&gt;blk.%.ffn_norm&lt;br&gt;&lt;/i&gt;&lt;b&gt;&lt;font face=&quot;Courier New&quot;&gt;[embd]&lt;/font&gt;&lt;/b&gt;" style="rounded=0;whiteSpace=wrap;html=1;" vertex="1" parent="0JP9FPOi-MLHy-7nl1S9-71">
          <mxGeometry x="40" y="165" width="120" height="60" as="geometry" />
        </mxCell>
        <mxCell id="0JP9FPOi-MLHy-7nl1S9-22" value="$$\times$$" style="ellipse;whiteSpace=wrap;html=1;aspect=fixed;direction=south;fontSize=23;align=center;verticalAlign=middle;fontStyle=0" vertex="1" parent="0JP9FPOi-MLHy-7nl1S9-71">
          <mxGeometry x="300" y="205" width="30" height="30" as="geometry" />
        </mxCell>
        <mxCell id="0JP9FPOi-MLHy-7nl1S9-23" style="edgeStyle=orthogonalEdgeStyle;rounded=0;orthogonalLoop=1;jettySize=auto;html=1;" edge="1" parent="0JP9FPOi-MLHy-7nl1S9-71" source="0JP9FPOi-MLHy-7nl1S9-18" target="0JP9FPOi-MLHy-7nl1S9-22">
          <mxGeometry relative="1" as="geometry" />
        </mxCell>
        <mxCell id="0JP9FPOi-MLHy-7nl1S9-24" style="edgeStyle=orthogonalEdgeStyle;rounded=0;orthogonalLoop=1;jettySize=auto;html=1;" edge="1" parent="0JP9FPOi-MLHy-7nl1S9-71" source="0JP9FPOi-MLHy-7nl1S9-21" target="0JP9FPOi-MLHy-7nl1S9-22">
          <mxGeometry relative="1" as="geometry" />
        </mxCell>
        <mxCell id="0JP9FPOi-MLHy-7nl1S9-26" value="repeat over&lt;br&gt;&amp;nbsp;&amp;nbsp;&lt;b&gt;&lt;font face=&quot;Courier New&quot;&gt;ctx*batch&lt;/font&gt;&lt;/b&gt;" style="edgeLabel;html=1;align=center;verticalAlign=middle;resizable=0;points=[];" vertex="1" connectable="0" parent="0JP9FPOi-MLHy-7nl1S9-24">
          <mxGeometry x="-0.4598" relative="1" as="geometry">
            <mxPoint x="-12" y="15" as="offset" />
          </mxGeometry>
        </mxCell>
        <mxCell id="0JP9FPOi-MLHy-7nl1S9-27" value="feedforward upscale&lt;br&gt;&lt;i&gt;blk.%.&lt;/i&gt;ffn_up&lt;i&gt;&lt;br&gt;&lt;/i&gt;&lt;b&gt;&lt;font face=&quot;Courier New&quot;&gt;[embd, ff_length]&lt;/font&gt;&lt;/b&gt;" style="rounded=0;whiteSpace=wrap;html=1;" vertex="1" parent="0JP9FPOi-MLHy-7nl1S9-71">
          <mxGeometry x="40" y="265" width="130" height="60" as="geometry" />
        </mxCell>
        <mxCell id="0JP9FPOi-MLHy-7nl1S9-28" value="@" style="ellipse;whiteSpace=wrap;html=1;aspect=fixed;direction=south;fontSize=17;" vertex="1" parent="0JP9FPOi-MLHy-7nl1S9-71">
          <mxGeometry x="300" y="280" width="30" height="30" as="geometry" />
        </mxCell>
        <mxCell id="0JP9FPOi-MLHy-7nl1S9-30" style="edgeStyle=orthogonalEdgeStyle;rounded=0;orthogonalLoop=1;jettySize=auto;html=1;" edge="1" parent="0JP9FPOi-MLHy-7nl1S9-71" source="0JP9FPOi-MLHy-7nl1S9-22" target="0JP9FPOi-MLHy-7nl1S9-28">
          <mxGeometry relative="1" as="geometry" />
        </mxCell>
        <mxCell id="0JP9FPOi-MLHy-7nl1S9-29" style="edgeStyle=orthogonalEdgeStyle;rounded=0;orthogonalLoop=1;jettySize=auto;html=1;" edge="1" parent="0JP9FPOi-MLHy-7nl1S9-71" source="0JP9FPOi-MLHy-7nl1S9-27" target="0JP9FPOi-MLHy-7nl1S9-28">
          <mxGeometry relative="1" as="geometry" />
        </mxCell>
        <mxCell id="0JP9FPOi-MLHy-7nl1S9-34" value="feedforward gate&lt;br&gt;&lt;i&gt;blk.%.&lt;/i&gt;ffn_gate&lt;i&gt;&lt;br&gt;&lt;/i&gt;&lt;b&gt;&lt;font face=&quot;Courier New&quot;&gt;[embd, ff_length]&lt;/font&gt;&lt;/b&gt;" style="rounded=0;whiteSpace=wrap;html=1;" vertex="1" parent="0JP9FPOi-MLHy-7nl1S9-71">
          <mxGeometry x="40" y="380" width="130" height="60" as="geometry" />
        </mxCell>
        <mxCell id="0JP9FPOi-MLHy-7nl1S9-35" value="feedforward downscale&lt;br&gt;&lt;i&gt;blk.%.&lt;/i&gt;ffn_down&lt;i&gt;&lt;br&gt;&lt;/i&gt;&lt;b&gt;&lt;font face=&quot;Courier New&quot;&gt;[ff_length,&amp;nbsp;&lt;/font&gt;&lt;/b&gt;&lt;b&gt;&lt;font face=&quot;Courier New&quot;&gt;embd&lt;/font&gt;&lt;/b&gt;&lt;b&gt;&lt;font face=&quot;Courier New&quot;&gt;]&lt;/font&gt;&lt;/b&gt;" style="rounded=0;whiteSpace=wrap;html=1;" vertex="1" parent="0JP9FPOi-MLHy-7nl1S9-71">
          <mxGeometry x="40" y="580" width="130" height="60" as="geometry" />
        </mxCell>
        <mxCell id="0JP9FPOi-MLHy-7nl1S9-37" value="@" style="ellipse;whiteSpace=wrap;html=1;aspect=fixed;direction=south;fontSize=17;" vertex="1" parent="0JP9FPOi-MLHy-7nl1S9-71">
          <mxGeometry x="350" y="395" width="30" height="30" as="geometry" />
        </mxCell>
        <mxCell id="0JP9FPOi-MLHy-7nl1S9-36" style="edgeStyle=orthogonalEdgeStyle;rounded=0;orthogonalLoop=1;jettySize=auto;html=1;" edge="1" parent="0JP9FPOi-MLHy-7nl1S9-71" source="0JP9FPOi-MLHy-7nl1S9-22" target="0JP9FPOi-MLHy-7nl1S9-37">
          <mxGeometry relative="1" as="geometry">
            <mxPoint x="350" y="465" as="targetPoint" />
          </mxGeometry>
        </mxCell>
        <mxCell id="0JP9FPOi-MLHy-7nl1S9-39" style="edgeStyle=orthogonalEdgeStyle;rounded=0;orthogonalLoop=1;jettySize=auto;html=1;jumpStyle=gap;" edge="1" parent="0JP9FPOi-MLHy-7nl1S9-71" source="0JP9FPOi-MLHy-7nl1S9-34" target="0JP9FPOi-MLHy-7nl1S9-37">
          <mxGeometry relative="1" as="geometry" />
        </mxCell>
        <mxCell id="0JP9FPOi-MLHy-7nl1S9-44" value="$$\top$$" style="text;html=1;align=center;verticalAlign=middle;resizable=0;points=[];autosize=1;strokeColor=none;fillColor=none;" vertex="1" parent="0JP9FPOi-MLHy-7nl1S9-71">
          <mxGeometry x="289" y="262" width="70" height="30" as="geometry" />
        </mxCell>
        <mxCell id="0JP9FPOi-MLHy-7nl1S9-45" value="$$\top$$" style="text;html=1;align=center;verticalAlign=middle;resizable=0;points=[];autosize=1;strokeColor=none;fillColor=none;" vertex="1" parent="0JP9FPOi-MLHy-7nl1S9-71">
          <mxGeometry x="340" y="377" width="70" height="30" as="geometry" />
        </mxCell>
        <mxCell id="0JP9FPOi-MLHy-7nl1S9-49" value="SiLU" style="ellipse;whiteSpace=wrap;html=1;aspect=fixed;direction=south;fontSize=12;" vertex="1" parent="0JP9FPOi-MLHy-7nl1S9-71">
          <mxGeometry x="350" y="455" width="30" height="30" as="geometry" />
        </mxCell>
        <mxCell id="0JP9FPOi-MLHy-7nl1S9-48" style="edgeStyle=orthogonalEdgeStyle;rounded=0;orthogonalLoop=1;jettySize=auto;html=1;" edge="1" parent="0JP9FPOi-MLHy-7nl1S9-71" source="0JP9FPOi-MLHy-7nl1S9-37" target="0JP9FPOi-MLHy-7nl1S9-49">
          <mxGeometry relative="1" as="geometry">
            <mxPoint x="365" y="475" as="targetPoint" />
          </mxGeometry>
        </mxCell>
        <mxCell id="0JP9FPOi-MLHy-7nl1S9-51" value="$$\times$$" style="ellipse;whiteSpace=wrap;html=1;aspect=fixed;direction=south;fontSize=23;align=center;verticalAlign=middle;fontStyle=0" vertex="1" parent="0JP9FPOi-MLHy-7nl1S9-71">
          <mxGeometry x="350" y="515" width="30" height="30" as="geometry" />
        </mxCell>
        <mxCell id="0JP9FPOi-MLHy-7nl1S9-31" style="edgeStyle=orthogonalEdgeStyle;rounded=0;orthogonalLoop=1;jettySize=auto;html=1;elbow=vertical;entryX=0.5;entryY=1;entryDx=0;entryDy=0;jumpStyle=gap;exitX=1;exitY=0.5;exitDx=0;exitDy=0;" edge="1" parent="0JP9FPOi-MLHy-7nl1S9-71" source="0JP9FPOi-MLHy-7nl1S9-28" target="0JP9FPOi-MLHy-7nl1S9-51">
          <mxGeometry relative="1" as="geometry">
            <mxPoint x="330" y="495" as="targetPoint" />
          </mxGeometry>
        </mxCell>
        <mxCell id="0JP9FPOi-MLHy-7nl1S9-33" value="&lt;div style=&quot;&quot;&gt;shape is&lt;/div&gt;&lt;b style=&quot;&quot;&gt;&lt;font face=&quot;Courier New&quot;&gt;[ff_length, ctx*batch]&lt;/font&gt;&lt;/b&gt;" style="edgeLabel;html=1;align=right;verticalAlign=middle;resizable=0;points=[];labelBackgroundColor=none;" vertex="1" connectable="0" parent="0JP9FPOi-MLHy-7nl1S9-31">
          <mxGeometry x="-0.2123" y="-2" relative="1" as="geometry">
            <mxPoint x="2" y="-60" as="offset" />
          </mxGeometry>
        </mxCell>
        <mxCell id="0JP9FPOi-MLHy-7nl1S9-52" style="edgeStyle=orthogonalEdgeStyle;rounded=0;orthogonalLoop=1;jettySize=auto;html=1;" edge="1" parent="0JP9FPOi-MLHy-7nl1S9-71" source="0JP9FPOi-MLHy-7nl1S9-49" target="0JP9FPOi-MLHy-7nl1S9-51">
          <mxGeometry relative="1" as="geometry" />
        </mxCell>
        <mxCell id="0JP9FPOi-MLHy-7nl1S9-53" value="$$\top$$" style="text;html=1;align=center;verticalAlign=middle;resizable=0;points=[];autosize=1;strokeColor=none;fillColor=none;" vertex="1" parent="0JP9FPOi-MLHy-7nl1S9-71">
          <mxGeometry x="289" y="577" width="70" height="30" as="geometry" />
        </mxCell>
        <mxCell id="0JP9FPOi-MLHy-7nl1S9-54" value="@" style="ellipse;whiteSpace=wrap;html=1;aspect=fixed;direction=south;fontSize=17;" vertex="1" parent="0JP9FPOi-MLHy-7nl1S9-71">
          <mxGeometry x="300" y="595" width="30" height="30" as="geometry" />
        </mxCell>
        <mxCell id="0JP9FPOi-MLHy-7nl1S9-56" style="edgeStyle=orthogonalEdgeStyle;rounded=0;orthogonalLoop=1;jettySize=auto;html=1;" edge="1" parent="0JP9FPOi-MLHy-7nl1S9-71" source="0JP9FPOi-MLHy-7nl1S9-35" target="0JP9FPOi-MLHy-7nl1S9-54">
          <mxGeometry relative="1" as="geometry" />
        </mxCell>
        <mxCell id="0JP9FPOi-MLHy-7nl1S9-55" style="edgeStyle=orthogonalEdgeStyle;rounded=0;orthogonalLoop=1;jettySize=auto;html=1;entryX=0;entryY=0.5;entryDx=0;entryDy=0;" edge="1" parent="0JP9FPOi-MLHy-7nl1S9-71" source="0JP9FPOi-MLHy-7nl1S9-51" target="0JP9FPOi-MLHy-7nl1S9-54">
          <mxGeometry relative="1" as="geometry">
            <Array as="points">
              <mxPoint x="365" y="555" />
              <mxPoint x="315" y="555" />
            </Array>
          </mxGeometry>
        </mxCell>
        <mxCell id="0JP9FPOi-MLHy-7nl1S9-60" style="edgeStyle=orthogonalEdgeStyle;rounded=0;orthogonalLoop=1;jettySize=auto;html=1;" edge="1" parent="0JP9FPOi-MLHy-7nl1S9-71" source="0JP9FPOi-MLHy-7nl1S9-58" target="0JP9FPOi-MLHy-7nl1S9-72">
          <mxGeometry relative="1" as="geometry">
            <mxPoint x="315" y="725" as="targetPoint" />
          </mxGeometry>
        </mxCell>
        <mxCell id="0JP9FPOi-MLHy-7nl1S9-58" value="$$+$$" style="ellipse;whiteSpace=wrap;html=1;aspect=fixed;direction=south;fontSize=23;align=center;verticalAlign=middle;fontStyle=0" vertex="1" parent="0JP9FPOi-MLHy-7nl1S9-71">
          <mxGeometry x="300" y="655" width="30" height="30" as="geometry" />
        </mxCell>
        <mxCell id="0JP9FPOi-MLHy-7nl1S9-59" style="edgeStyle=orthogonalEdgeStyle;rounded=0;orthogonalLoop=1;jettySize=auto;html=1;" edge="1" parent="0JP9FPOi-MLHy-7nl1S9-71" source="0JP9FPOi-MLHy-7nl1S9-54" target="0JP9FPOi-MLHy-7nl1S9-58">
          <mxGeometry relative="1" as="geometry" />
        </mxCell>
        <mxCell id="0JP9FPOi-MLHy-7nl1S9-66" style="edgeStyle=orthogonalEdgeStyle;rounded=0;orthogonalLoop=1;jettySize=auto;html=1;" edge="1" parent="0JP9FPOi-MLHy-7nl1S9-71" source="0JP9FPOi-MLHy-7nl1S9-65" target="0JP9FPOi-MLHy-7nl1S9-18">
          <mxGeometry relative="1" as="geometry">
            <Array as="points">
              <mxPoint x="315" y="120" />
              <mxPoint x="315" y="120" />
            </Array>
          </mxGeometry>
        </mxCell>
        <mxCell id="0JP9FPOi-MLHy-7nl1S9-67" style="edgeStyle=orthogonalEdgeStyle;rounded=0;orthogonalLoop=1;jettySize=auto;html=1;" edge="1" parent="0JP9FPOi-MLHy-7nl1S9-71" source="0JP9FPOi-MLHy-7nl1S9-65" target="0JP9FPOi-MLHy-7nl1S9-58">
          <mxGeometry relative="1" as="geometry">
            <mxPoint x="450" y="380" as="targetPoint" />
            <Array as="points">
              <mxPoint x="400" y="670" />
            </Array>
          </mxGeometry>
        </mxCell>
        <mxCell id="0JP9FPOi-MLHy-7nl1S9-65" value="input embedding&lt;br&gt;&lt;font face=&quot;Courier New&quot;&gt;&lt;b&gt;[embd, ctx*batch]&lt;/b&gt;&lt;/font&gt;" style="rounded=1;whiteSpace=wrap;html=1;" vertex="1" parent="0JP9FPOi-MLHy-7nl1S9-71">
          <mxGeometry x="280" y="60" width="150" height="50" as="geometry" />
        </mxCell>
        <mxCell id="0JP9FPOi-MLHy-7nl1S9-72" value="output embedding&lt;br&gt;&lt;font face=&quot;Courier New&quot;&gt;&lt;b&gt;[embd, ctx*batch]&lt;/b&gt;&lt;/font&gt;" style="rounded=1;whiteSpace=wrap;html=1;" vertex="1" parent="0JP9FPOi-MLHy-7nl1S9-71">
          <mxGeometry x="240" y="725" width="150" height="50" as="geometry" />
        </mxCell>
      </root>
    </mxGraphModel>
  </diagram>
</mxfile>
